<?xml version="1.0" standalone="no"?>
<!DOCTYPE svg PUBLIC "-//W3C//DTD SVG 1.1//EN" "http://www.w3.org/Graphics/SVG/1.1/DTD/svg11.dtd" >
<svg xmlns="http://www.w3.org/2000/svg">
<metadata>Generated by IcoMoon</metadata>
<defs>
<font id="thwmarketing" horiz-adv-x="1024">
<font-face units-per-em="1024" ascent="960" descent="-64" />
<missing-glyph horiz-adv-x="1024" />
<glyph unicode="&#x20;" horiz-adv-x="512" d="" />
<glyph unicode="&#xe900;" glyph-name="bubbles, comments, chat, talk" horiz-adv-x="1152" d="M1088 58.834c0-45.5 26.028-84.908 64-104.184v-15.938c-10.626-1.454-21.472-2.224-32.5-2.224-68.008 0-129.348 28.528-172.722 74.264-26.222-6.982-54.002-10.752-82.778-10.752-159.058 0-288 114.616-288 256s128.942 256 288 256c159.058 0 288-114.616 288-256 0-55.348-19.764-106.592-53.356-148.466-6.824-14.824-10.644-31.312-10.644-48.7zM512 960c278.458 0 504.992-180.614 511.836-405.52-49.182 21.92-103.586 33.52-159.836 33.52-95.56 0-185.816-33.446-254.138-94.178-70.846-62.972-109.862-147.434-109.862-237.822 0-44.672 9.544-87.888 27.736-127.788-5.228-0.126-10.468-0.212-15.736-0.212-27.156 0-53.81 1.734-79.824 5.044-109.978-109.978-241.25-129.7-368.176-132.596v26.916c68.536 33.578 128 94.74 128 164.636 0 9.754-0.758 19.33-2.164 28.696-115.796 76.264-189.836 192.754-189.836 323.304 0 229.75 229.23 416 512 416z" />
<glyph unicode="&#xe901;" glyph-name="newsletter" d="M36.2 321.4c-44 54.2-48 180.6-5 239 23.8-5.8 43.2-26 69-27.2 26.2-1.2 64 19 96 32 153 62.6 304.2 120.8 458.4 182.4 63.8 25.6 124 55.8 182.4 71.6 8.4 2.2 25.2 3.6 42-2.4 51-18.4 87.6-87.2 108.4-147.8 42.4-123.6 49.8-292 5-419-18.2-51.4-54.2-114-103.6-120.8-30.4-4.2-69.8 14.4-103.6 24.6-199.8 60.6-379.4 118-576.8 177.6-69.8 21-122 38.2-172.2-10zM778.2 619.6c-21.8-99.4-13-221.6 14.8-305.6 13-39.2 37.4-99.8 76.4-98.6 34.8 1 52.2 50.2 64 96.2 26.2 101.6 23 215.8-4.8 310.6-15.4 52.2-41.6 117.6-83.8 111-40.8-6.6-57.4-71-66.6-113.6zM208.8 282c30-9.4 59.8-19 88.8-29.6 7.8-23.4 4.4-52.6 27.2-66.6 13.8-8.4 90.2-30 108.4-27.2 25.2 4 32.2 31.4 51.8 37 23.6-11.6 54-16.6 78.8-27.2 1.6-8.6-8.6-16-14.8-22.2-20-20-59.6-69.8-96.2-71.6-34-1.6-71 18.8-106 29.6-31.4 9.8-80.2 17-98.6 37-33.2 36-18.4 94-39.4 140.8z" />
<glyph unicode="&#xe902;" glyph-name="video" d="M512 958.2c-281.8 0-510-228.4-510-510 0-281.8 228.4-510.2 510-510.2 281.8 0 510.2 228.4 510.2 510.2 0 281.6-228.4 510-510.2 510zM428.8 172.2v551.6l275.8-275.8-275.8-275.8z" />
<glyph unicode="&#xe903;" glyph-name="blog" d="M448.4 126.6c-42.2-62.6-81.4-128.2-127-187.4-41.6 59-85.6 126.8-122.8 183-39 9-78.2 15.8-107.6 34.4-45 28.6-82 86.6-88.2 161.6-5.6 65.6 0 146.8 0 228.2 0 80.8-5.6 164.4 0 226.2 8.8 103.2 83.8 173.4 178.4 183.2 49.8 5.2 107.4 0 166 0 53.2 0 109.6 0 163.8 0 113 0 229.8 8.6 327.4 0 112-9.8 166.4-78.4 185.2-181-7.8-139.6 10.6-323.2 0-454.6-6-76-36.2-130.4-88.2-163.8-105.4-66.8-322-11.8-487-29.8zM838.2 253.6c32.4 8.2 53.8 30.6 58.2 64.6 8 62.8 0 144.6 0 224 0 79 0 158.6 0 224-5.4 20.6-14 42.4-36.6 53.8-5 2.4-6.4 5-4.2 4.2-1.8 0.6-16.6 4-19.4 4.4-45 6.4-102 0-159.4 0-101.8 0-222.8 0-323 0-96 0-179.8 14-215.4-32.4-14.2-63.4-8.6-156.2-8.6-256.4 0-83-8.6-163.2 0-224 7.6-53.8 54-68.2 112-62.4 22.6-45 52.6-82.4 79.8-122.8 32.8 37.6 53.6 81.4 86.2 122.8 143.2 0.2 286.8 0.2 430.4 0.2zM263.2 699.6c167.2 0 334.6 0 501.8 0 4.8-16.8 0.8-42.2 2-62.6-169.4 0-338.8 0-508.4 0 0 18.8 0 37.4 0 56 0.2 3.8 1.8 5.6 4.6 6.6zM263.2 572.4c167.2 0 334.6 0 501.8 0 4.8-16.6 0.8-42.2 2-62.4-169.4 0-338.8 0-508.4 0 0 18.6 0 37.4 0 56 0.2 3.6 1.8 5.6 4.6 6.4zM513 445.2c0-21.4 0-43 0-64.6-84 0-168 0-252 0-3.2 17-4 47.8 0 64.6 84 0 168 0 252 0z" />
<glyph unicode="&#xe904;" glyph-name="testimonials" d="M1 508.6c0 114.6 0 212.8 81.8 307.8 78.8 91.8 160.6 98.4 272 98.4h62.2v-222.8l-42.6 3.4c-131 0-134.4-108.2-134.4-209.8v-42.4h177v-462h-416v527.4zM607 508.6c0 114.6 6.6 212.8 82 307.8 78.6 95 157.2 98.4 272 98.4h62.2v-222.8l-42.6 3.4c-131 0-134.4-108.2-134.4-206.4v-46h177v-462h-416v527.6z" />
<glyph unicode="&#xe905;" glyph-name="pinterest-p" horiz-adv-x="1019" d="M143.783 582.281q0 61.714 21.429 116.286t59.143 95.143 86.857 70.286 105.714 44.571 115.429 14.857q90.286 0 168-38t126.286-110.571 48.571-164q0-54.857-10.857-107.429t-34.286-101.143-57.143-85.429-82.857-58.857-108-22q-38.857 0-77.143 18.286t-54.857 50.286q-5.714-22.286-16-64.286t-13.429-54.286-11.714-40.571-14.857-40.571-18.286-35.714-26.286-44.286-35.429-49.429l-8-2.857-5.143 5.714q-8.571 89.714-8.571 107.429 0 52.571 12.286 118t38 164.286 29.714 116q-18.286 37.143-18.286 96.571 0 47.429 29.714 89.143t75.429 41.714q34.857 0 54.286-23.143t19.429-58.571q0-37.714-25.143-109.143t-25.143-106.857q0-36 25.714-59.714t62.286-23.714q31.429 0 58.286 14.286t44.857 38.857 32 54.286 21.714 63.143 11.429 63.429 3.714 56.857q0 98.857-62.571 154t-163.143 55.143q-114.286 0-190.857-74t-76.571-187.714q0-25.143 7.143-48.571t15.429-37.143 15.429-26 7.143-17.429q0-16-8.571-41.714t-21.143-25.714q-1.143 0-9.714 1.714-29.143 8.571-51.714 32t-34.857 54-18.571 61.714-6.286 60.857z" />
<glyph unicode="&#xe906;" glyph-name="instagram, brand2, social2" d="M512 867.8c136.8 0 153-0.6 206.8-3 50-2.2 77-10.6 95-17.6 23.8-9.2 41-20.4 58.8-38.2 18-18 29-35 38.4-58.8 7-18 15.4-45.2 17.6-95 2.4-54 3-70.2 3-206.8s-0.6-153-3-206.8c-2.2-50-10.6-77-17.6-95-9.2-23.8-20.4-41-38.2-58.8-18-18-35-29-58.8-38.4-18-7-45.2-15.4-95-17.6-54-2.4-70.2-3-206.8-3s-153 0.6-206.8 3c-50 2.2-77 10.6-95 17.6-23.8 9.2-41 20.4-58.8 38.2-18 18-29 35-38.4 58.8-7 18-15.4 45.2-17.6 95-2.4 54-3 70.2-3 206.8s0.6 153 3 206.8c2.2 50 10.6 77 17.6 95 9.2 23.8 20.4 41 38.2 58.8 18 18 35 29 58.8 38.4 18 7 45.2 15.4 95 17.6 53.8 2.4 70 3 206.8 3zM512 960c-139 0-156.4-0.6-211-3-54.4-2.4-91.8-11.2-124.2-23.8-33.8-13.2-62.4-30.6-90.8-59.2-28.6-28.4-46-57-59.2-90.6-12.6-32.6-21.4-69.8-23.8-124.2-2.4-54.8-3-72.2-3-211.2s0.6-156.4 3-211c2.4-54.4 11.2-91.8 23.8-124.2 13.2-33.8 30.6-62.4 59.2-90.8 28.4-28.4 57-46 90.6-59 32.6-12.6 69.8-21.4 124.2-23.8 54.6-2.4 72-3 211-3s156.4 0.6 211 3c54.4 2.4 91.8 11.2 124.2 23.8 33.6 13 62.2 30.6 90.6 59s46 57 59 90.6c12.6 32.6 21.4 69.8 23.8 124.2 2.4 54.6 3 72 3 211s-0.6 156.4-3 211c-2.4 54.4-11.2 91.8-23.8 124.2-12.6 34-30 62.6-58.6 91-28.4 28.4-57 46-90.6 59-32.6 12.6-69.8 21.4-124.2 23.8-54.8 2.6-72.2 3.2-211.2 3.2v0zM512 711c-145.2 0-263-117.8-263-263s117.8-263 263-263 263 117.8 263 263c0 145.2-117.8 263-263 263zM512 277.4c-94.2 0-170.6 76.4-170.6 170.6s76.4 170.6 170.6 170.6c94.2 0 170.6-76.4 170.6-170.6s-76.4-170.6-170.6-170.6zM846.8 721.4c0-33.91-27.49-61.4-61.4-61.4s-61.4 27.49-61.4 61.4c0 33.91 27.49 61.4 61.4 61.4s61.4-27.49 61.4-61.4z" />
<glyph unicode="&#xe907;" glyph-name="linkedin, brand22, social22" d="M384 576h177.106v-90.782h2.532c24.64 44.194 84.958 90.782 174.842 90.782 186.946 0 221.52-116.376 221.52-267.734v-308.266h-184.61v273.278c0 65.184-1.334 149.026-96.028 149.026-96.148 0-110.82-70.986-110.82-144.292v-278.012h-184.542v576zM64 576h192v-576h-192v576zM256 736c0-53.019-42.981-96-96-96s-96 42.981-96 96c0 53.019 42.981 96 96 96s96-42.981 96-96z" />
<glyph unicode="&#xe908;" glyph-name="facebook2, brand3, social3" d="M608 768h160v192h-160c-123.514 0-224-100.486-224-224v-96h-128v-192h128v-512h192v512h160l32 192h-192v96c0 17.346 14.654 32 32 32z" />
<glyph unicode="&#xe909;" glyph-name="twitter, brand4, tweet, social4" d="M1024 733.6c-37.6-16.8-78.2-28-120.6-33 43.4 26 76.6 67.2 92.4 116.2-40.6-24-85.6-41.6-133.4-51-38.4 40.8-93 66.2-153.4 66.2-116 0-210-94-210-210 0-16.4 1.8-32.4 5.4-47.8-174.6 8.8-329.4 92.4-433 219.6-18-31-28.4-67.2-28.4-105.6 0-72.8 37-137.2 93.4-174.8-34.4 1-66.8 10.6-95.2 26.2 0-0.8 0-1.8 0-2.6 0-101.8 72.4-186.8 168.6-206-17.6-4.8-36.2-7.4-55.4-7.4-13.6 0-26.6 1.4-39.6 3.8 26.8-83.4 104.4-144.2 196.2-146-72-56.4-162.4-90-261-90-17 0-33.6 1-50.2 3 93.2-59.8 203.6-94.4 322.2-94.4 386.4 0 597.8 320.2 597.8 597.8 0 9.2-0.2 18.2-0.6 27.2 41 29.4 76.6 66.4 104.8 108.6z" />
<glyph unicode="&#xe90a;" glyph-name="bubble-user, bubble, comment, chat2, talk2" d="M262.904 800.918c14.282-19.544 19.356-53.183-9.584-51.491-17.477 1.128-18.417 16.913-26.685 30.632-46.981 0-76.298 22.551-82.123 55.25-17.101 97.345 124.594 110.688 139.44 28.565 5.45-29.692-7.705-46.605-21.048-62.955zM188.674 831.55c9.020-13.906 35.33-13.155 49.612-1.879 38.337 66.713-86.446 58.257-49.612 1.879zM745.496 747.547c-74.23-74.418-144.702-152.783-217.429-228.893 18.605-25.746 32.887-72.539 17.101-110.688 8.269-14.094 26.685-11.463 28.565-28.565 3.195-28.189-31.008-27.061-47.733-11.463-13.719-4.886-28.94-24.43-45.854-32.323 15.41-64.082 33.075-125.91 47.733-190.744 55.25-5.262 96.218-37.209 97.345-91.519 0.94-54.122-43.599-92.083-85.882-95.466-99.6-7.893-138.501 134.93-49.612 175.522-17.665 63.143-33.075 128.353-49.612 192.623-52.243-3.195-77.801 20.108-102.983 43.974-37.773-21.987-73.103-46.417-112.567-66.713 24.054-103.171-140.756-114.258-139.252-15.222 0.94 56.378 72.915 91.519 118.205 49.612 38.149 21.611 73.667 46.042 112.567 66.713-19.544 56.19 6.953 110.876 40.028 137.373-17.289 16.725-18.417 53.934 11.463 49.612 15.41-2.255 16.162-18.041 24.806-30.444 33.075 15.034 80.432 4.322 102.983-13.343 75.922 73.479 145.078 153.911 219.309 228.893-41.907 60.512 9.772 150.716 88.137 142.635 78.177-8.081 101.48-104.298 61.076-152.595-21.611-25.746-80.808-50.176-118.393-18.98zM753.201 863.873c-45.666-49.236 30.632-124.782 78.177-76.298 36.082 36.645 4.322 99.976-53.371 87.761-11.463-2.443-19.356-5.638-24.806-11.463zM350.665 434.652c6.389-61.076 93.211-90.768 137.373-47.733 51.304 49.988 14.282 152.219-72.539 137.373-42.471-7.329-69.908-39.464-64.834-89.64zM133.236 264.956c11.276-12.403 38.713-11.088 47.733 1.879 17.665 25.37-4.886 52.243-30.444 47.733-24.054-4.322-32.699-32.323-17.289-49.612zM484.28 24.6c22.927-48.673 133.615-18.605 93.399 55.25-8.081 14.658-29.692 25.746-57.317 21.048-35.894-6.202-50.928-44.914-36.082-76.298zM287.711 722.741c16.913 3.195 25.746-15.786 38.149-38.149 11.088-19.92 40.78-68.029 1.879-68.593-15.598-0.188-21.987 19.92-34.39 41.907-9.584 17.665-40.968 58.069-5.638 64.834zM623.533 348.77c19.92 8.457 42.659-13.719 64.834-26.685 18.041-10.524 42.847-20.296 43.787-34.39 0.564-8.269-5.638-21.048-17.101-22.927-17.853-2.819-34.954 15.222-55.25 26.685-16.913 9.584-44.914 19.544-47.733 34.39-3.007 16.349 6.577 20.86 11.463 22.927zM800.934 209.706c-11.276 10.712-28.377 10.336-30.444 26.685-3.946 30.632 34.39 28.565 49.612 9.584 46.605 45.478 120.084 7.141 120.084-49.612 0-32.699-31.008-68.029-64.834-70.66-48.109-3.759-80.244 35.142-74.418 84.002zM852.425 169.678c53.934-26.873 63.331 72.727 5.638 53.371-18.98-6.389-25.37-43.599-5.638-53.371z" />
<glyph unicode="&#xe90b;" glyph-name="stats-growth, stats, improvement, bars, graph, statistics, up" d="M736 960l110.058-110.058-270.058-270.060-192 192-352-352 67.882-67.882 284.118 284.118 192-192 337.942 337.94 110.058-110.058v288zM832 540.118v-604.118h128v732.118zM640 348.118v-412.118h128v540.118zM448-64h128v348.118l-128 128zM256-64h128v540.118l-128-128zM64 156.118v-220.118h128v348.118z" />
<glyph unicode="&#xe90c;" glyph-name="marketing-consultancy" d="M888.6 957.2c5.4-40.2 0.8-90.4 2.4-134.6 39.4-5.4 89-0.8 132.2-2.4 4-8.2-9.8-14.4-16.2-20.8-21-21.2-46.6-50-69.6-69.6-25.4-5-56 6.6-83.4 0-21-5-49.6-44.8-67.4-62.6-64-64-131-131-190.4-192.6 54-102.4-13.6-215.2-116-225-103.8-10-172.4 76-167 162.4 5.2 84 87.2 164 192.6 134.6 15.8-4.4 23.4-7.6 41.8-20.8 64.4 58.6 123.8 126 190.2 192.6 19.2 19.2 57 44.6 62.6 65 8 29.2-5.6 55.8 0 78.8 7.2 29.2 75 69 88.2 95zM724 781c-10.8-22.8-35.8-40.4-55.6-60.4-20-20-38-45-62.6-58-105.2 71.2-267.6 28-343.4-44.2-59-55.8-103.4-128.8-95.2-243.6 11-153.2 138.8-286 327.2-271.4 190.8 14.6 336 224.8 234.4 433.8 13 24.6 38 42.6 58 62.6s37.6 44.8 60.4 55.6c44.8-73 72.8-144 76.6-239 3.8-96.8-28-185.4-65-248.2-75.4-128.2-212.8-229.6-396.8-229.6-138 0-246.2 58.4-324.8 136.8-78 78-136.4 184-136.8 322.6-0.8 143 54.2 243.6 127.2 318 75.8 77.4 166.8 137.2 306.2 146.2 127.6 8.2 212.6-34.4 290.2-81.2z" />
<glyph unicode="&#xe90d;" glyph-name="public-speaking" d="M496.4 958.8c73.2 9.6 134.4-41.4 139-112.6 4.4-67.4-45.4-128-114.8-132.4-78.6-5-136 55.8-132.4 130.2 3.4 65 45.2 106.4 108.2 114.8zM397.2 678.6c18.6-43.8 40.8-84.2 59.6-128 14 14.6 21.4 36 33 53-12 17.8-28.2 40.2-15.4 61.8 12.6 21.2 53.8 15.6 75 4.4 12.4-25-4.4-51-15.6-66.2 10-18 20.2-35.6 31-53 22.2 41 42 84.6 61.8 128 101.6 4.6 123.2-71 114.8-176.6-153 0-306 0-459.2 0-8.4 105.6 12.8 181.6 115 176.6zM882.8 466.6c47.2 7.4 85-5.2 70.6-64-4.6-18.8-32.8-39.6-53-59.6-18.6-18.6-44.2-49.4-57.4-53-21.2-5.8-53.8 4.6-68.4 0-1.6 22.6 7.8 44.8 2.2 64-17.8 11.8-40.8 6.6-61.8 6.6-149.8 0-322.4 3.6-468-4.4-5.6-20.4 3.8-42.8 2.2-66.2-27.2 4-47.4-5.4-68.4 0-19.4 5-43.4 38.8-57.4 53-20.4 20.6-37.8 38-53 55.2-15 76.2 28.8 68.4 99.4 68.4 220.6 0 467.4 0 677.6 0 1 28.2-1.8 52.6-13.2 68.4-39.8 5.4-60.6 29-57.4 61.8 6.4 62.6 102.2 59.8 106-2.2 1.2-22-7.4-27.8-15.4-44.2 10.6-22.4 17.4-48.6 15.4-83.8zM284.6 325.4c152.4 0 304.6 0 456.8 0-9.6-96.2-20.2-190.4-30.8-293.6-3-29.6-3-76.6-17.6-88.2-14.4-11.2-60.6-6.6-88.4-6.6-72.4 0-111.4 0-189.8 0-32.4 0-74-3.2-86 8.8-13 13-12.2 60-15.4 90.4-9.8 95.2-21.2 191.8-31 282.6-0.2 3-0.4 6.2 2.2 6.6z" />
<glyph unicode="&#xe90e;" glyph-name="social-media-management" d="M399.2 913c94 1.4 176.8-8.4 257-20.8 30.4 89.2 184.6 70 171.4-41.8-1.4-11.4-5.2-18.2-10.4-29.2 39.6-49.6 84.2-94.2 117-150.4 93 37.2 121.6-113.4 39.6-125.4 5.4-87.6-4.8-175.8-20.8-248.6 17.6-19.2 40.4-33.2 46-62.6 23-122.4-167.2-144.2-173.4-25-1.6 32.2 9.6 48.8 27.2 69-23.6 42.6-54.4 78-79.4 119-23.4-14.2-42.4-32.8-64.8-48-11 3.4-12 17.2-20.8 23 21.8 16.6 42.6 34 64.8 50.2-49 67.4-101.2 131.6-156.6 192.2-117.6-6.4-224.4-23.6-325.8-46-12-60.6-22.8-122-35.6-181.8 31.2-39.2 72.2-68.6 112.8-98.2-4-10.8-13.4-15.8-16.8-27.2-37.6 25-69.6 55.6-104.4 83.6-2.6-33.6-11.6-61-14.6-94 61.2-30.4 41.8-129-27.2-129.6-57.8-0.4-89.4 77-43.8 119-24.8 60.8-42.8 128.4-56.4 200.6-117.6 5.6-107.6 198.8 25 173.4 50.4 88.2 103 174.2 169.2 246.6-47 85.4 96 145 120.8 52zM399.2 879.6c-9.4-24.6 19.6-36.2 33.4-50.2 15.6-15.6 31.6-32.6 48-43.8 41.2 18.2 87.4 37 129.6 52.2 14.4 5.2 35.2 6.8 43.8 18.8-72.2 19-166.6 27-254.8 23zM370 840c-7.4-8.6-20.8-11.2-37.6-10.4-10.8-45-24.8-86.8-33.4-133.8 43.8 21 94.4 53.2 146.2 73.2-21.4 27.2-46.6 50.8-75.2 71zM140.2 597.6c22.6 3.4 41.2 22.6 60.6 35.6 20.6 13.6 41.4 26 60.6 39.6 8.6 57.6 31.4 112 37.6 165-60.2-72.8-117.4-148.8-158.8-240.2zM764.8 779.4c-55-13.4-80.6 17.8-104.4 41.8-53.6-18-105-38.4-156.6-58.4 16.6-21.8 34.8-38.6 54.4-58.4 13-13.4 39.4-54.2 56.4-58.6 6-1.6 16.8 1.8 23 2.2 83.6 4.2 182.4-6 261.2-10.4 19.4 15.6-3.4 34.2-14.6 50.2-27.8 38.4-62 84.2-92.2 106.2-10.2-8.4-17.6-12.4-27.2-14.6zM468.2 746c-63.4-29.2-124.4-60.8-181.8-96-0.4-18.4-8-29.6-8.4-48 89.8 20.8 185.6 35.8 290.4 41.8-31.6 35.6-61.8 73-100.2 102.2zM177.8 574.6c19.4 8.4 43 12.6 64.8 18.8-0.8 9.6 11.8 26.2 2.2 31.4-20.4-17.4-54.8-31.6-67-50.2zM775.2 445c49.4 36.2 91.2 80 129.6 127.4-8.6 7.4-9.6 22.4-14.6 33.4-81 6-162 12-250.6 10.4 44.4-57.6 92.8-111.8 135.6-171.2zM173.6 541.2c2-31.2-5.6-53-20.8-66.8 16-22.2 33.4-43.2 54.2-60.6 9.2 48 19.2 95 27.2 144.2-21.4-4.4-41-10.6-60.6-16.8zM929.8 549.6c-41.8-47.4-88.2-90-133.8-133.6 29.6-38 56-79 83.6-119 13.8 2 28.4 8 41.8 4.2 17.6 73 24.4 168.4 20.8 244.4-6-0.8-6.2 4.4-12.4 4zM123.4 451.4c-0.4-2.4-3.2-2.2-6.2-2.2 5.8-51 19.4-108.8 35.6-154.6 5.2-14.8 10.2-33.6 23-41.8 12.2 36 16.8 79.4 23 121.2-27 24-45.4 56.6-75.4 77.4zM524.6 484.8c78.4 6.6 155.4-74 110.8-163-50.8-101.4-234.4-67.4-213.2 73 7.4 49.2 47.6 85.4 102.4 90zM710.6-66.8c-117.6 0-235.4 0-353 0 5 37 13.8 77 21 117 7.6 42.8 8.4 94.8 25 125.4 41.6 76.4 219.4 85.8 263.2-4.2 14.8-30.4 16.2-78.2 23-119 6.8-41.6 14.8-81.8 20.8-119.2z" />
<glyph unicode="&#xe90f;" glyph-name="social-media-training" d="M504 960c5.4 0 10.6 0 16 0 29.8-8.6 24-41.6 24-84 0-43.8 2.2-77.8-34-76-34.6 1.6-30 38.8-30 80 0 44-4.4 72.2 24 80zM278 898c36.4 10.4 48.4-30.6 62-54 10.4-18 32.8-43.4 28-68-3-15-20-26.4-40-22-23.2 5.2-29 29.4-42 52-12.4 21.6-54 78.8-8 92zM728 898c14 3.2 36.6 0.2 40-24 3.2-23.8-18.4-49.8-30-70-12-21-26.2-51-48-52-14.4-0.6-31.2 10.2-34 24-4.4 22.4 16.2 45.8 28 66 13.8 23.6 22 50.8 44 56zM524-64c-8 0-16 0-24 0-29.6 9.2-50.8 26.6-52 64-95.6-0.4-55.6 135-64 222-93.2 56.8-170.6 135.6-160 282 10.8 148.2 139 275.4 310 264 141-9.4 256.2-119.2 266-266 10-150.6-72.2-224-160-282-8.2-86.6 31.2-220.4-64-220-1.2-37.4-22.4-54.8-52-64zM736 482c-0.8 126.8-104.4 231.2-238 222-114.8-7.8-206-99.8-210-216-4-120.4 71.2-184 160-226 0-23.4 0-46.6 0-70 42.6 0 85.4 0 128 0 0 24 0 48 0 72 90.2 38.2 160.8 103.4 160 218zM448 128c0-21.4 0-42.6 0-64 42.6 0 85.4 0 128 0 0 21.4 0 42.6 0 64-42.6 0-85.2 0-128 0zM114 734c27.8 8 50-17.6 76-32 22.2-12.2 49.2-23 50-44 0.6-15.4-12.2-31.6-24-34-26.4-5.2-50.8 18.8-70 30-17.2 9.8-51.6 19.2-54 46-1.8 19.6 10.6 30.8 22 34zM892 734c17.6 3.4 41.4-3.6 40-32-1.2-25-31.8-36.4-52-48-19.6-11.2-43.6-32.6-68-30-16.4 1.8-28 17.2-28 32 0 22.6 26.2 32.6 46 44 23.6 13.6 39.8 29.8 62 34zM170 512c28-7.2 28-56.8 0-64-51 6.6-135.6-19.6-138 30-2.4 53.2 84.2 28.4 138 34zM856 510c0.6 0.2 0.2 1.8 2 2 42.2 3.2 134 14.6 134-32 0-36.6-34.4-32-80-32-41.6 0-78.4-5.8-80 30-1 24.2 13.4 29 24 32zM198 334c21.2 4.4 42-3.8 42-30 0-25.2-28.4-34.4-52-48-23.4-13.6-43.6-34.4-68-32-16.8 1.6-29 14.6-28 34 1 21.4 29.4 34.4 46 44 21.2 12.2 40.8 28 60 32zM808 334c24.6 6.2 49.4-15.8 74-30 18.4-10.6 47.4-24.2 50-42 2.4-16.8-8.6-35.6-26-38-24.2-3.4-46.8 16.6-70 30-20 11.6-50.8 23.6-52 48-0.8 18.4 8.6 28.2 24 32zM638 640c-34.8-51.8-85.6-105.2-124-160 42 0 84 0 126 0-84-54-170.4-105.6-254-160 34.8 51.8 85.4 105.2 124 160-42 0-84 0-126 0 84 54 170.4 105.6 254 160z" />
<glyph unicode="&#xe910;" glyph-name="envelope" d="M1024 554.286v-453.714q0-37.714-26.857-64.571t-64.571-26.857h-841.143q-37.714 0-64.571 26.857t-26.857 64.571v453.714q25.143-28 57.714-49.714 206.857-140.571 284-197.143 32.571-24 52.857-37.429t54-27.429 62.857-14h1.143q29.143 0 62.857 14t54 27.429 52.857 37.429q97.143 70.286 284.571 197.143 32.571 22.286 57.143 49.714zM1024 722.286q0-45.143-28-86.286t-69.714-70.286q-214.857-149.143-267.429-185.714-5.714-4-24.286-17.429t-30.857-21.714-29.714-18.571-32.857-15.429-28.571-5.143h-1.143q-13.143 0-28.571 5.143t-32.857 15.429-29.714 18.571-30.857 21.714-24.286 17.429q-52 36.571-149.714 104.286t-117.143 81.429q-35.429 24-66.857 66t-31.429 78q0 44.571 23.714 74.286t67.714 29.714h841.143q37.143 0 64.286-26.857t27.143-64.571z" />
<glyph unicode="&#xe911;" glyph-name="phone, telephone, contact, support, call" d="M704 320c-64-64-64-128-128-128s-128 64-192 128-128 128-128 192 64 64 128 128-128 256-192 256-192-192-192-192c0-128 131.5-387.5 256-512s384-256 512-256c0 0 192 128 192 192s-192 256-256 192z" />
<glyph unicode="&#xe912;" glyph-name="station, radio, broadcast, live" d="M640 659.248c0 70.692-57.306 128-128 128-70.692 0-128-57.308-128-128 0-45.354 23.608-85.166 59.184-107.904l-162.572-596.096h78.776l17.454 64h270.316l17.456-64h78.776l-162.572 596.096c35.574 22.738 59.182 62.55 59.182 107.904zM594.794 211.248h-165.588l17.454 64h130.68l17.454-64zM464.116 339.248l47.884 175.578 47.884-175.578h-95.768zM394.296 83.248l17.456 64h200.498l17.454-64h-235.408zM664.348 940.722c99.852-54.158 167.652-159.898 167.652-281.474s-67.8-227.316-167.652-281.474c44.066 70.126 71.652 170.27 71.652 281.474s-27.586 211.348-71.652 281.474zM856.348 940.722c99.852-54.158 167.652-159.898 167.652-281.474s-67.8-227.316-167.652-281.474c44.066 70.126 71.652 170.27 71.652 281.474s-27.586 211.348-71.652 281.474zM359.652 377.774c-99.852 54.16-167.652 159.898-167.652 281.474s67.8 227.314 167.652 281.474c-44.068-70.126-71.652-170.27-71.652-281.474s27.584-211.348 71.652-281.474zM0 659.248c0 121.576 67.8 227.314 167.652 281.474-44.068-70.126-71.652-170.27-71.652-281.474s27.584-211.348 71.652-281.474c-99.852 54.16-167.652 159.898-167.652 281.474z" />
<glyph unicode="&#xe913;" glyph-name="bullhorn, megaphone, announcement, advertisement, news" d="M1024 530.744c0 200.926-58.792 363.938-131.482 365.226 0.292 0.006 0.578 0.030 0.872 0.030h-82.942c0 0-194.8-146.336-475.23-203.754-8.56-45.292-14.030-99.274-14.030-161.502s5.466-116.208 14.030-161.5c280.428-57.418 475.23-203.756 475.23-203.756h82.942c-0.292 0-0.578 0.024-0.872 0.032 72.696 1.288 131.482 164.298 131.482 365.224zM864.824 220.748c-9.382 0-19.532 9.742-24.746 15.548-12.63 14.064-24.792 35.96-35.188 63.328-23.256 61.232-36.066 143.31-36.066 231.124 0 87.81 12.81 169.89 36.066 231.122 10.394 27.368 22.562 49.266 35.188 63.328 5.214 5.812 15.364 15.552 24.746 15.552 9.38 0 19.536-9.744 24.744-15.552 12.634-14.064 24.796-35.958 35.188-63.328 23.258-61.23 36.068-143.312 36.068-231.122 0-87.804-12.81-169.888-36.068-231.124-10.39-27.368-22.562-49.264-35.188-63.328-5.208-5.806-15.36-15.548-24.744-15.548zM251.812 530.744c0 51.95 3.81 102.43 11.052 149.094-47.372-6.554-88.942-10.324-140.34-10.324-67.058 0-67.058 0-67.058 0l-55.466-94.686v-88.17l55.46-94.686c0 0 0 0 67.060 0 51.398 0 92.968-3.774 140.34-10.324-7.236 46.664-11.048 97.146-11.048 149.096zM368.15 317.828l-127.998 24.51 81.842-321.544c4.236-16.634 20.744-25.038 36.686-18.654l118.556 47.452c15.944 6.376 22.328 23.964 14.196 39.084l-123.282 229.152zM864.824 411.27c-3.618 0-7.528 3.754-9.538 5.992-4.87 5.42-9.556 13.86-13.562 24.408-8.962 23.6-13.9 55.234-13.9 89.078s4.938 65.478 13.9 89.078c4.006 10.548 8.696 18.988 13.562 24.408 2.010 2.24 5.92 5.994 9.538 5.994 3.616 0 7.53-3.756 9.538-5.994 4.87-5.42 9.556-13.858 13.56-24.408 8.964-23.598 13.902-55.234 13.902-89.078 0-33.842-4.938-65.478-13.902-89.078-4.004-10.548-8.696-18.988-13.56-24.408-2.008-2.238-5.92-5.992-9.538-5.992z" />
<glyph unicode="&#xe914;" glyph-name="facebook, brand, social" d="M928 960h-832c-52.8 0-96-43.2-96-96v-832c0-52.8 43.2-96 96-96h416v448h-128v128h128v64c0 105.8 86.2 192 192 192h128v-128h-128c-35.2 0-64-28.8-64-64v-64h192l-32-128h-160v-448h288c52.8 0 96 43.2 96 96v832c0 52.8-43.2 96-96 96z" />
<glyph unicode="&#xe915;" glyph-name="group, users" horiz-adv-x="1033" d="M461.476 735.044c-73.86-26.959-123.53-87.524-115.775-189.819-99.341-1.662-162.676 67.397-153.813 155.659 6.463 62.411 55.949 116.329 119.653 123.346 77.737 8.679 126.854-33.606 149.935-89.185zM693.025 545.225c8.494 104.881-44.131 164.338-119.468 191.666 25.112 51.886 66.474 95.648 148.088 87.339 35.268-3.508 63.704-21.050 83.461-41.731 79.584-82.907 26.959-244.66-112.082-237.274zM501.36 708.455c80.876 10.34 148.458-44.87 157.506-115.775 10.894-85.492-46.901-152.335-117.621-161.383-91.955-11.633-196.467 76.629-153.813 189.819 16.064 42.285 57.241 80.138 113.928 87.339zM245.067 526.206c17.542-29.359 34.899-58.718 51.148-89.185-93.432-26.774-95.648-144.765-100.634-259.986-50.594 0-101.188 0-151.781 0 6.093 113.005-12.925 237.274 28.436 305.409 28.99 47.639 95.833 44.131 172.831 43.762zM789.781 526.206c82.353 1.108 146.611 2.585 174.678-47.455 37.668-67.582 21.050-200.16 26.589-301.716-49.301 0-98.787 0-148.088 0-5.17 116.329-5.724 237.274-104.327 259.986 15.88 30.836 33.052 60.38 51.148 89.185zM433.040 412.278c29.175-48.563 57.61-98.049 85.308-148.088 31.021 47.455 57.61 99.341 87.339 148.088 72.752-1.477 135.348 4.616 166.923-36.007 52.625-67.397 25.851-204.776 34.16-313.165-191.666 0-383.331 0-574.997 0 8.125 105.25-16.434 234.689 28.436 305.594 29.728 46.901 96.202 43.023 172.831 43.577z" />
<glyph unicode="&#xe916;" glyph-name="pound" d="M437.2 361h96.6c-7.2 23-17.2 44.6-36 80.6-50.4 102.2-66.2 167-66.2 260.8 0 161.4 79.2 253.6 233.4 253.6s233.4-92.2 233.4-253.6v-99.4h-149.8v109.4c0 72-28.8 99.4-79.2 99.4s-79.2-27.4-79.2-99.4c0-86.4 13-151.2 59-249.2 27.4-59 31.6-77.8 37.4-102.2h174.2v-122.4h-164.2c-7.2-73.4-37.4-123.8-80.6-158.4h272v-144h-471v138.2c75 0 134 60.4 136.8 164.2h-116.6v122.4z" />
<glyph unicode="&#xe917;" glyph-name="video-player" d="M127 923c61 6.2 139 2 204.2 2 130.4 0 264.4 0 404 0 67.4 0 146.2 8 193.6-6.4 45-13.8 73.2-51.4 85-85 16.6-47 8.6-138.4 8.6-187.2 0-123.8 0-260.6 0-389.2 0-59 7.8-138.2-6.4-187.2-12-41.2-44.4-77.8-91.4-91.4-50.8-14.8-133-6.4-202-6.4-138.4 0-277.2 0-416.8 0-68 0-150.2-10-204 4.2-44.8 12-82.4 53-93.6 91.4-14.4 49-6.4 126.6-6.4 191.4 0 137.6 0 255.6 0 393.4 0 49.2-8.6 136.4 10.6 185 20.8 53.4 61.4 79.8 114.6 85.4zM886.4 661.2c0 31.2 8.8 101.6-10.6 119.2-22.4 20-124.8 8.6-170.2 8.6-157 0-295.2 0-450.8 0-46.8 0-103.2 9.2-114.8-19.2-11.6-28-2.2-86.6-2.2-121.2 0-123.8 0-261.2 0-370 249.6 0 499 0 748.6 0 0 130.4 0 249.8 0 382.6zM412.2 174.2c-33.2 11-57.4-10.8-72.4-31.8-67.4 0-134.6 0-202 0-0.8-19.8 12.4-25.8 23.4-34 60.2 0 120.6 0 180.8 0 12.6-21 32.2-40 63.8-34 20.4 4 26.6 23.2 40.4 34 139 0 278 0 416.8 0 11 8.2 24.2 14.2 23.4 34-147.4 0-295 0-442.4 0-10.4 12-15.8 26.4-31.8 31.8zM386.6 718.6c27.4 3.6 65.2-22 93.6-36.2 56-27.6 108.8-54.6 170-85 35.6-17.6 64.8-29.4 66-61.8 1.2-38.6-36-51.8-63.8-65.8-62-31.2-112.6-55.6-172.2-85-38.6-19-108.4-69-134-8.4-13.6 32.2-4.2 100.2-4.2 157.4 0 28.8 0 58.8 0 80.8-0.2 55-5 97.8 44.6 104z" />
<glyph unicode="&#xe918;" glyph-name="plus" d="M615.661 550.911h374.903v-208.071h-374.903v-373.028h-208.071v373.028h-374.903v208.071h374.903v374.903h208.071v-374.903z" />
<glyph unicode="&#xe919;" glyph-name="arrow-down, down, buttom" d="M1024 608l-96 96-416-416-416 416-96-96 511.998-512 512.002 512z" />
<glyph unicode="&#xe91a;" glyph-name="icon_datareport" d="M64 0c0-35.328 28.672-64 64-64h768c35.328 0 64 28.672 64 64v896c0 35.328-28.672 64-64 64h-768c-35.328 0-64-28.672-64-64v-896zM128 896h768v-896h-768v896zM256 384h128v-256h-128zM448 704h128v-576h-128zM640 576h128v-448h-128z" />
<glyph unicode="&#xe91b;" glyph-name="icon_heart_alt" d="M1023.499 590.132c-2.688 157.056-130.112 297.024-287.488 297.024-91.008 0-171.2-47.616-224-117.504-52.8 69.888-132.992 117.504-224 117.504-157.376 0-284.8-139.968-287.488-297.024h-0.512c0-0.96 0.192-1.856 0.192-2.816 0-0.704-0.192-1.408-0.192-2.176 0-4.416 1.088-7.744 1.28-11.968 14.080-400.256 506.688-564.352 506.688-564.352s499.84 163.904 514.624 563.712c0.256 4.48 1.408 8 1.408 12.608 0 0.768-0.192 1.472-0.192 2.176 0 1.024 0.192 1.856 0.192 2.816h-0.512zM958.667 574.9c-11.328-307.2-362.112-463.36-450.56-497.856-87.68 34.56-432.064 190.016-442.88 499.072-0.128 3.2-0.448 6.144-0.896 9.344 0.064 1.152 0.128 2.368 0.192 3.584 2.176 126.912 104.512 234.112 223.488 234.112 65.664 0 128.704-33.536 172.928-92.096 12.096-16 30.976-25.408 51.072-25.408s38.976 9.408 51.072 25.408c44.224 58.56 107.264 92.096 172.928 92.096 118.976 0 221.312-107.2 223.488-234.112 0-1.216 0.064-2.432 0.192-3.648-0.448-3.136-0.832-6.464-1.024-10.496z" />
<glyph unicode="&#xe91c;" glyph-name="icon_lightbulb_alt" horiz-adv-x="1022" d="M510.999 959.989c-211.303 0-383.257-171.955-383.257-383.257 0-123.537 60.044-240.175 160.713-312.035 1.533-1.086 3.13-2.108 4.727-3.066 23.379-13.733 25.678-58 25.167-66.112-0.064-1.341-0.128-2.683-0.128-3.96v-125.836c0-24.017 13.414-45.927 34.813-56.85l128.902-65.856c9.134-4.663 19.099-7.026 29.064-7.026 9.901 0 19.738 2.3 28.808 6.835l130.435 65.856c21.526 10.859 35.068 32.896 35.068 57.041v125.070c0 63.046 38.517 83.87 38.901 84.061 5.11 2.363 9.837 5.429 14.117 9.070 86.361 73.074 135.929 179.748 135.929 292.809 0 211.303-171.955 383.257-383.257 383.257zM382.097 191.494c0 0 0 1.278 0.064 1.98h259.465c0-0.958-0.256-1.661-0.256-2.683 0-25.103 0-44.969 0-61.193h-259.274v61.896zM510.999-0.135l-128.838 65.856h259.274l-130.435-65.856zM717.064 332.724c0 0-42.797-20.121-64.004-75.374h-281.183c-7.921 22.101-21.654 44.841-46.31 59.341-81.059 57.872-133.948 152.792-133.948 260.040 0 176.362 143.019 319.381 319.381 319.381s319.381-143.019 319.381-319.381c0-97.858-44.011-185.433-113.316-244.007zM542.937 832.237c-17.63 0-31.938-14.308-31.938-31.938s14.308-31.938 31.938-31.938c71.861 0 159.691-65.345 159.691-162.693 0-17.63 14.308-31.938 31.938-31.938s31.938 14.308 31.938 31.938c0 145.702-113.764 226.569-223.567 226.569z" />
<glyph unicode="&#xe91d;" glyph-name="icon_mobile" d="M735.992-64c35.328 0 64 28.672 64 64v896c0 35.328-28.672 64-64 64h-448c-35.328 0-64-28.672-64-64v-896c0-35.328 28.672-64 64-64h448zM479.992 35.968c0 19.904 16.128 35.968 35.968 35.968s35.968-16.128 35.968-35.968-16.064-35.968-35.968-35.968-35.968 16.128-35.968 35.968zM639.992 896c17.664 0 32-14.336 32-32s-14.336-32-32-32h-64c-17.664 0-32 14.336-32 32s14.336 32 32 32h64zM479.992 864c0-17.664-14.336-32-32-32s-32 14.336-32 32c0 17.664 14.336 32 32 32s32-14.336 32-32zM287.992 768h448v-640h-448v640z" />
<glyph unicode="&#xe91e;" glyph-name="icon_pens" d="M128 768v-512l128-320 128 320-0.32 0.128c0.192 0.192 0.128 0.512 0.32 0.704v575.168c0 70.72-57.28 128-128 128s-128-57.28-128-128v-64zM192 832c0 35.264 28.736 64 64 64s64-28.736 64-64v-64h-128v64zM256 108.352l-46.72 116.736 46.72 23.36 46.72-23.36-0.96-2.432-12.8-32-32.96-82.304zM320 288l-64 32-64-32v416h128v-416zM805.888 769.344l-61.312 158.656-0.576-0.192c-4.48 18.304-20.288 32.192-40 32.192-21.184 0-37.888-15.872-40.832-36.224l-1.152 0.256-59.904-154.688-26.112-65.344v-640c0-70.72 57.28-128 128-128s128 57.28 128 128c35.328 0 64 28.672 64 64v192c0 35.328-28.672 64-64 64v320l-26.112 65.344zM768 320v-256c0-35.264-28.736-64-64-64s-64 28.736-64 64v640h128v-384zM737.472 768h-66.944l33.472 83.648 33.472-83.648z" />
<glyph unicode="&#xe91f;" glyph-name="icon_ribbon_alt" d="M167.488-59.136c7.936-3.264 16.256-4.864 24.512-4.864 16.64 0 33.024 6.528 45.248 18.752l274.752 274.752 274.752-274.752c12.224-12.224 28.608-18.752 45.248-18.752 8.256 0 16.576 1.6 24.448 4.864 23.936 9.92 39.552 33.28 39.552 59.136v896c0 35.328-28.672 64-64 64h-640c-35.328 0-64-28.672-64-64v-896c0-25.856 15.616-49.216 39.488-59.136zM512 320l-320-320v704h640v-704l-320 320zM832 896v-128h-640v128h640z" />
<glyph unicode="&#xe920;" glyph-name="cogs" d="M0 285.8c6.2 14.2 5.4 35.2 15.2 45.6 25.2 12.8 54.6-3.4 81.2-5 13.4 10.2 21 26.4 30.4 40.6-3.6 34.2-43.4 41.6-38 78.6 2.8 19.6 35.6 41.8 55.8 40.6 32.6-2 39.2-51.2 58.4-66 17.2 0.6 32 3.6 45.6 7.6 16.8 25.6 5.6 78.8 35.4 91.2 8.4 0 17 0 25.4 0 13.2-3.6 27.6-6.2 38-12.6 12.8-28.6-4-63-7.6-91.2 8-14 26.4-17.4 38-27.8 24.8 6 48.4 50.4 83.6 45.6 19.4-2.6 43.6-33.6 40.6-58.4-4.2-33.4-53-35-71-60.8 3-14 6.6-27.2 10.2-40.6 27.6-11.4 68-9.8 91.2-25.4 8-28.2 4.8-67-17.8-76-25.2-10.2-52.8 12-83.6 10.2-8.2-13-16.6-25.6-22.8-40.6 4.6-26.4 46.4-46.2 40.6-81.2-3.4-20.2-35.8-42.4-60.8-38-29 5-30 47-53.2 63.4-15.4-5.6-33.6-8.8-48.2-15.2-10.2-23.6-8.6-59-22.8-78.6-4.8-0.4-8.4-1.6-10.2-5-7.6 0-15.2 0-22.8 0-14.8 5.4-34.4 6.2-43 17.8-12.6 40.8 14.8 47 7.6 73.4-2.8 10.2-34.6 30-45.6 30.4-27.8 0.8-48-36-68.4-35.4-21.2 0.6-47.8 35.2-45.6 58.4 2.8 30.6 41.8 31 58.4 53.2-3 17.2-6.4 34.2-10.2 50.6-25.2 14.6-73.8 5.6-83.6 35.4-0.4 5-0.4 10.2-0.4 15.2zM248.4 321.2c-32.8-6-52.2-25.4-58.2-58.4-4.2-3.6-4.2-24.4 0-27.8 6-32.8 25.4-52.2 58.2-58.2 3.6-4.2 24.4-4.2 27.8 0 78.2 2.4 79.8 142.4 0 144.4-3.4 4.2-24.2 4.2-27.8 0zM283.8 519c2.8 4.2 22.6 4.2 25.4 0-8.4 0-16.8 0-25.4 0zM248.4 321.2c3.6 4.2 24.4 4.2 27.8 0-9.2 0-18.4 0-27.8 0zM190 263c0-9.2 0-18.6 0-27.8-4 3.4-4 24.2 0 27.8zM248.4 176.8c9.4 0 18.6 0 27.8 0-3.4-4.2-24.2-4.2-27.8 0zM621 909.4c7.6 0 15.2 0 22.8 0 35.2-14.6 32-67.8 45.6-104 19.2-2.8 39.6-4.4 58.4-7.6 24.8 20.2 30.2 91 73.4 93.8 15.4 1 33.6-10.2 45.6-17.8 58.2-36.4-1.2-88.2-20.2-131.8 17.4-11.8 15.8-36.4 38-40.6 29.8-5.6 79.4 33.8 111.6 20.2 19.6-8.2 17.2-30.4 27.8-55.8 0-9.2 0-18.6 0-27.8-17.2-34.2-73.8-29.2-109-45.6-4-15.4-3-35.8-5-53.2 20.2-25.4 91.8-31.2 96.2-73.6 3.2-29.8-22-69.6-48.2-73.6-44.6-6.8-62.2 37.4-98.8 45.6-11-17.4-37-21.6-40.6-43-4.8-29.6 26.2-65 20.2-96.4-4.8-25.2-53.2-43-81.2-38-40.4 7.2-31 68.2-48.2 98.8-19 3.8-40.6 5-63.4 5-24.2-19.4-28.6-84.6-71-86.2-11.2-0.4-34.2 12-43 17.8-51.6 32.8-11 77.2 10.2 116.6-13.6 19.4-26.6 39.2-45.6 53.2-35.2-4.6-77.2-34.8-104-10.2-11 10.2-24.6 47.6-20.2 71 6.6 36.2 58.8 32.4 93.8 45.6 1.4 24 5 45.6 7.6 68.4-24.6 23.8-76.4 25.6-81.2 63.4-4 31.4 25.6 74.6 53.2 76 34 1.8 53.8-35.6 83.6-40.6 17.4 13 37 23.8 50.6 40.6-3.2 31.4-29 69.2-17.8 98.8 9 23 34 20.6 58.8 31zM684.4 491c66.6-3 121.4 57.6 91.2 129.2-6.4 15.4-36.2 48.8-68.4 53.2-135.8 19-142-177-22.8-182.4z" />
<glyph unicode="&#xe921;" glyph-name="case-studies" d="M405.2 960c14.8 0 29.4 0 44 0 184.8-18.6 308.4-115 369-258 33.2-78.2 42.6-180.6 21.2-266.2-40.2-160.6-151.4-273.2-313.6-313.6-85.6-21.4-188-12-266.2 21.2-142.6 61-239 184.8-257.6 369.2 0 14.8 0 29.4 0 44 6.4 112 57.4 212.8 124 279.2 68.4 68.6 167.2 117 279.2 124.2zM202.8 754.4c-41.6-41.8-83.4-100.8-89.8-194.4-11.2-165.8 87.2-269.8 194.2-315.2 57.8-24.4 131.2-30.6 194.2-14.6 115 29 201.2 112.6 230.2 228.6 15.8 63.4 9 139.6-14.8 196-25.2 59.6-50.8 94.4-98 130.6-51.4 39.4-128.6 71.6-222 62-90.8-9.2-147.2-46.4-194-93zM470.6 298.8c-39.2-10-82.2 1.6-116 16.4-64.8 28.4-122.6 80.6-146.8 151.8-10.8 31.4-23.8 125.8 31 107.8 36-12 46.6-60.6 60.4-99.6 25-70.4 87.4-114.8 147-151.8 8.4-5.4 24.2-9.4 24.4-24.6zM1024 40.8c0-7.2 0-14.2 0-21.2-8.8-45.6-36.2-72.6-81.6-81.6-7.2 0-14.2 0-21.2 0-42 6.8-63.8 36.6-89.8 62-50.2 48.8-103 103.4-148.6 150.2 51.2 34.8 94.2 77.6 129 129 50.6-47.2 101-100.2 150.2-150.2 26-26.6 56.2-46 62-88.2zM1024 19.6c0-27.2 0-54.4 0-81.6-27.2 0-54.4 0-81.6 0 45.4 9 72.8 36 81.6 81.6z" />
<glyph unicode="&#xe922;" glyph-name="cookie" d="M1007.472 609.68c-8.832 45.192-26.328 95.424-50.376 135.856-21.736 36.544-42.832 87.152-79.072 114.128-54.832 40.8-129.256 47.496-192.896 70.128-49 17.416-93.096 30.2-145.624 30.2 0 0-168.672-2.576-225.48-36.176-55.376-32.752-115.76-64.488-161.336-107.768-35.784-33.96-69.272-64.096-89.336-107.76-13.704-29.824-18.224-63.888-34.16-111.76-46.024-138.216-40.608-280.704 37.656-403.824 54.952-86.456 95.2-136.744 187.416-186.864 105-57.048 199.12-69.832 322.672-69.832 57.768 0 122.232 19.112 150.312 33.736 51.448 26.784 113.12 62.6 153.432 101.912 38.952 38 64.040 82.384 87.328 129.664 23.656 47.976 33.552 96.592 41.136 147.8 6.328 42.752 13.36 82.224 14.704 125.704 1.488 46.968-7.36 88.936-16.376 134.856zM586.168 866.92c26.84 0 36.16-13.512 36.16-40.352 0-33.76-21.752-48.592-48.584-48.592s-48.584 21.76-48.584 48.592 34.168 40.352 61.008 40.352zM120.336 522.6c0 28.464 28.192 51.544 56.664 51.544 28.456 0 26.44-23.080 26.44-51.544s-11.704-51.536-40.168-51.536c-28.472 0-42.936 23.080-42.936 51.536zM248.664 153.336c-31.928 0-73.208 33.8-73.208 65.72 0 31.928 25.88 46.568 57.808 46.568s57.816-14.64 57.816-46.568c-0.008-31.92-10.488-65.72-42.416-65.72zM277 716.728c0 32.552 21.128 71.16 58.928 58.928 30.96-10.016 58.928-26.376 58.928-58.928 0-32.544-26.376-58.928-58.928-58.928-32.56 0-58.928 26.384-58.928 58.928zM439.064 327.96c-29.464 0-64.48 23.904-64.48 53.376 0 29.464 8.336 53.36 37.8 53.36s68.928-23.896 68.928-53.36c0.008-29.472-12.784-53.376-42.248-53.376zM515.72 25.552c-24.376 0-44.128 19.752-44.128 44.128 0 33.672 27.752 51.144 52.136 51.144 24.36 0 44.264-23.256 44.264-47.64 0.008-24.352-38.432-47.632-52.272-47.632zM534.312 588.8c0 26.52 37.128 45.36 63.632 45.36s32.408-18.848 32.408-45.36-8.936-48.008-35.464-48.008c-26.512 0-60.576 21.496-60.576 48.008zM654.584 232.336c-26.616 0-61.6 10.832-61.6 37.432s21.416 58.192 48.032 58.192 48.016-26.208 48.016-52.824-7.84-42.8-34.448-42.8zM754.84 696.672c16.016 22.424 25.048 55.96 55.952 55.96 21.096 0 50.28-25.576 55.968-55.96 8.496-45.4-25.064-55.968-55.968-55.968-30.888 0-72.888 32.256-55.952 55.968zM827.992 135.112c-39.592 0-51.16 25.552-51.16 57.080 0 31.512 24.448 57 55.968 57 31.512 0 41.968-9.016 41.968-40.528s-15.264-73.552-46.776-73.552zM898.928 387.584c-28.136 0-45.088 12.304-45.088 40.448 0 28.152 34.032 53.768 62.168 53.768 28.152 0 31.504-20.368 31.504-48.512 0-28.136-20.44-45.704-48.584-45.704z" />
<glyph unicode="&#xe923;" glyph-name="logo" d="M434.6 347c23.6 27.2 43.2 58.6 67.2 87.4 21.4 25.4 42.8 66.2 94.2 60.4 54.6-87.2-65.8-170.6-13.4-255.4 41.6 5.4 57.8 36.4 80.6 60.6-15.8 79.4-33.8 228.2 77.4 191.6 10.4-64.4-7.8-128.8-3.4-198.4 37.2 67.4 31.4 260.6 148 205-5-63.4-9.4-127.4-13.4-191.6 15.6 23.2 24.2 61.6 37 100.8 21 64.6 28 145.2 114.4 107.6 4.4-48.8-13.2-100-30.2-141.2-14.2-34.4-35.6-71.2-53.8-104.2-17.8-32.4-42.4-70.2-77.4-80.6-37 28-24.4 105.6-40.4 154.6-10.6-66.4-92.2-252-144.6-121-37.6-27.4-64.8-65-134.4-60.6-71.8 24.6-58.8 148.8-26.8 208.4-28.4-21.2-48-58.6-74-111-16.2-32.8-38.6-116.8-67.2-117.6-26-0.8-30.4 23-33.6 50.4-48.4-17.2-73.8-67-131-67.2-103.6-0.6-116.8 185-114.2 285.8-28.2 17.2-100-4-94.2 33.6 4 26.2 58.8 18.6 94.2 23.6 20.4 76.8 26.8 198.6 87.4 232 7 3.8 20.4 6.6 26.8 6.8 97.2 0.4 70.8-180.6 23.6-232 32.6-0.2 59.2 5.8 94.2 3.4 10.4 71.4 14 179 53.8 238.6 41.4 62.2 151.6 90.6 154.6-26.8 2.6-128.8-72.8-239.4-101.4-343zM461.4 706.8c-60-66.6-67-204-63.8-322.6 22 107 81 194.4 70.6 322.6-2.4 0-4.6 0-6.8 0zM162.2 471.4c25.8 3.4 51.2 72.6 60.6 107.6 6.4 24.6 4.4 48.4-13.4 53.8-41-28.6-38.2-100.8-47.2-161.4zM206 414.2c-47.4-17.8-47.2-197.6 0-211.8 39.6-12 117.8 44.2 124.4 70.6 11.6 46.6-15.4 103.6-3.4 154.6-2.2 0-4.4 0-6.8 0-34-8.4-79.4-5.6-114.2-13.4z" />
<glyph unicode="&#xe924;" glyph-name="youtube" horiz-adv-x="878" d="M554.857 240v-120.571q0-38.286-22.286-38.286-13.143 0-25.714 12.571v172q12.571 12.571 25.714 12.571 22.286 0 22.286-38.286zM748 239.428v-26.286h-51.429v26.286q0 38.857 25.714 38.857t25.714-38.857zM196 364h61.143v53.714h-178.286v-53.714h60v-325.143h57.143v325.143zM360.571 38.857h50.857v282.286h-50.857v-216q-17.143-24-32.571-24-10.286 0-12 12-0.571 1.714-0.571 20v208h-50.857v-223.429q0-28 4.571-41.714 6.857-21.143 33.143-21.143 27.429 0 58.286 34.857v-30.857zM605.714 123.428v112.571q0 41.714-5.143 56.571-9.714 32-40.571 32-28.571 0-53.143-30.857v124h-50.857v-378.857h50.857v27.429q25.714-31.429 53.143-31.429 30.857 0 40.571 31.429 5.143 15.429 5.143 57.143zM798.857 129.143v7.429h-52q0-29.143-1.143-34.857-4-20.571-22.857-20.571-26.286 0-26.286 39.429v49.714h102.286v58.857q0 45.143-15.429 66.286-22.286 29.143-60.571 29.143-38.857 0-61.143-29.143-16-21.143-16-66.286v-98.857q0-45.143 16.571-66.286 22.286-29.143 61.714-29.143 41.143 0 61.714 30.286 10.286 15.429 12 30.857 1.143 5.143 1.143 33.143zM451.429 650.857v120q0 39.429-24.571 39.429t-24.571-39.429v-120q0-40 24.571-40t24.571 40zM862.286 221.714q0-133.714-14.857-200-8-33.714-33.143-56.571t-58.286-26.286q-105.143-12-317.143-12t-317.143 12q-33.143 3.429-58.571 26.286t-32.857 56.571q-14.857 64-14.857 200 0 133.714 14.857 200 8 33.714 33.143 56.571t58.857 26.857q104.571 11.429 316.571 11.429t317.143-11.429q33.143-4 58.571-26.857t32.857-56.571q14.857-64 14.857-200zM292 950.857h58.286l-69.143-228v-154.857h-57.143v154.857q-8 42.286-34.857 121.143-21.143 58.857-37.143 106.857h60.571l40.571-150.286zM503.429 760.571v-100q0-46.286-16-67.429-21.143-29.143-60.571-29.143-38.286 0-60 29.143-16 21.714-16 67.429v100q0 45.714 16 66.857 21.714 29.143 60 29.143 39.429 0 60.571-29.143 16-21.143 16-66.857zM694.857 853.143v-285.143h-52v31.429q-30.286-35.429-58.857-35.429-26.286 0-33.714 21.143-4.571 13.714-4.571 42.857v225.143h52v-209.714q0-18.857 0.571-20 1.714-12.571 12-12.571 15.429 0 32.571 24.571v217.714h52z" />
</font>
</defs>
</svg>
